<svg width="24" height="24" viewBox="0 0 24 24" fill="none" xmlns="http://www.w3.org/2000/svg">
<path d="M16.2092 5.54946L18.4508 7.79098M17.6503 3.57476L11.5864 9.63862C11.2721 9.9508 11.0583 10.3497 10.9722 10.7843L10.4121 13.588L13.2159 13.0268C13.65 12.94 14.0481 12.7272 14.3616 12.4138L20.4255 6.34992C20.6077 6.1677 20.7522 5.95138 20.8509 5.71329C20.9495 5.47521 21.0002 5.22004 21.0002 4.96234C21.0002 4.70464 20.9495 4.44947 20.8509 4.21138C20.7522 3.9733 20.6077 3.75698 20.4255 3.57476C20.2433 3.39254 20.0269 3.24799 19.7888 3.14937C19.5508 3.05076 19.2956 3 19.0379 3C18.7802 3 18.525 3.05076 18.2869 3.14937C18.0488 3.24799 17.8325 3.39254 17.6503 3.57476Z" stroke="#105AAA" stroke-width="1.5" stroke-linecap="round" stroke-linejoin="round"/>
<path d="M18.8825 15.7059V18.8823C18.8825 19.444 18.6594 19.9826 18.2622 20.3797C17.8651 20.7769 17.3264 21 16.7648 21H5.11766C4.55602 21 4.01739 20.7769 3.62025 20.3797C3.22311 19.9826 3 19.444 3 18.8823V7.23532C3 6.67368 3.22311 6.13505 3.62025 5.73792C4.01739 5.34078 4.55602 5.11768 5.11766 5.11768H8.29416" stroke="#105AAA" stroke-width="1.5" stroke-linecap="round" stroke-linejoin="round"/>
</svg>
