<svg width="16" height="16" viewBox="0 0 16 16" fill="none" xmlns="http://www.w3.org/2000/svg">
<path d="M15.4385 6.325C9.93018 5.56833 5.18018 9.65833 5.49935 15.0833M3.41602 4.66667C3.41602 5.10869 3.59161 5.53262 3.90417 5.84518C4.21673 6.15774 4.64065 6.33333 5.08268 6.33333C5.52471 6.33333 5.94863 6.15774 6.26119 5.84518C6.57375 5.53262 6.74935 5.10869 6.74935 4.66667C6.74935 4.22464 6.57375 3.80072 6.26119 3.48816C5.94863 3.17559 5.52471 3 5.08268 3C4.64065 3 4.21673 3.17559 3.90417 3.48816C3.59161 3.80072 3.41602 4.22464 3.41602 4.66667Z" stroke="#105AAA" stroke-linecap="round" stroke-linejoin="round"/>
<path d="M0.5 8.88832C2.81667 8.56749 4.89583 9.68665 6.02 11.4717" stroke="#105AAA" stroke-linecap="round" stroke-linejoin="round"/>
<path d="M0.5 5.83333C0.5 3.96667 0.5 3.03333 0.863333 2.32C1.18291 1.69282 1.69282 1.18291 2.32 0.863333C3.03333 0.5 3.96667 0.5 5.83333 0.5H10.1667C12.0333 0.5 12.9667 0.5 13.68 0.863333C14.3072 1.18291 14.8171 1.69282 15.1367 2.32C15.5 3.03333 15.5 3.96667 15.5 5.83333V10.1667C15.5 12.0333 15.5 12.9667 15.1367 13.68C14.8171 14.3072 14.3072 14.8171 13.68 15.1367C12.9667 15.5 12.0333 15.5 10.1667 15.5H5.83333C3.96667 15.5 3.03333 15.5 2.32 15.1367C1.69282 14.8171 1.18291 14.3072 0.863333 13.68C0.5 12.9667 0.5 12.0333 0.5 10.1667V5.83333Z" stroke="#105AAA" stroke-linecap="round" stroke-linejoin="round"/>
</svg>
