<svg width="32" height="32" viewBox="0 0 32 32" fill="none" xmlns="http://www.w3.org/2000/svg">
<path fill-rule="evenodd" clip-rule="evenodd" d="M6.57143 11.7143V6.57143H11.7143V11.7143H6.57143ZM4 5.71429C4 5.25963 4.18061 4.82359 4.5021 4.5021C4.82359 4.18061 5.25963 4 5.71429 4H12.5714C13.0261 4 13.4621 4.18061 13.7836 4.5021C14.1051 4.82359 14.2857 5.25963 14.2857 5.71429V12.5714C14.2857 13.0261 14.1051 13.4621 13.7836 13.7836C13.4621 14.1051 13.0261 14.2857 12.5714 14.2857H5.71429C5.25963 14.2857 4.82359 14.1051 4.5021 13.7836C4.18061 13.4621 4 13.0261 4 12.5714V5.71429ZM17.7143 6.14286C17.7143 5.80186 17.8497 5.47484 18.0909 5.23372C18.332 4.9926 18.659 4.85714 19 4.85714H26.7143C27.0553 4.85714 27.3823 4.9926 27.6234 5.23372C27.8645 5.47484 28 5.80186 28 6.14286C28 6.48385 27.8645 6.81088 27.6234 7.05199C27.3823 7.29311 27.0553 7.42857 26.7143 7.42857H19C18.659 7.42857 18.332 7.29311 18.0909 7.05199C17.8497 6.81088 17.7143 6.48385 17.7143 6.14286ZM19 10.8571C18.659 10.8571 18.332 10.9926 18.0909 11.2337C17.8497 11.4748 17.7143 11.8019 17.7143 12.1429C17.7143 12.4838 17.8497 12.8109 18.0909 13.052C18.332 13.2931 18.659 13.4286 19 13.4286H26.7143C27.0553 13.4286 27.3823 13.2931 27.6234 13.052C27.8645 12.8109 28 12.4838 28 12.1429C28 11.8019 27.8645 11.4748 27.6234 11.2337C27.3823 10.9926 27.0553 10.8571 26.7143 10.8571H19ZM6.57143 20.2857V25.4286H11.7143V20.2857H6.57143ZM5.71429 17.7143C5.25963 17.7143 4.82359 17.8949 4.5021 18.2164C4.18061 18.5379 4 18.9739 4 19.4286V26.2857C4 26.7404 4.18061 27.1764 4.5021 27.4979C4.82359 27.8194 5.25963 28 5.71429 28H12.5714C13.0261 28 13.4621 27.8194 13.7836 27.4979C14.1051 27.1764 14.2857 26.7404 14.2857 26.2857V19.4286C14.2857 18.9739 14.1051 18.5379 13.7836 18.2164C13.4621 17.8949 13.0261 17.7143 12.5714 17.7143H5.71429ZM19 18.5714C18.659 18.5714 18.332 18.7069 18.0909 18.948C17.8497 19.1891 17.7143 19.5162 17.7143 19.8571C17.7143 20.1981 17.8497 20.5252 18.0909 20.7663C18.332 21.0074 18.659 21.1429 19 21.1429H26.7143C27.0553 21.1429 27.3823 21.0074 27.6234 20.7663C27.8645 20.5252 28 20.1981 28 19.8571C28 19.5162 27.8645 19.1891 27.6234 18.948C27.3823 18.7069 27.0553 18.5714 26.7143 18.5714H19ZM19 24.5714C18.659 24.5714 18.332 24.7069 18.0909 24.948C17.8497 25.1891 17.7143 25.5161 17.7143 25.8571C17.7143 26.1981 17.8497 26.5252 18.0909 26.7663C18.332 27.0074 18.659 27.1429 19 27.1429H26.7143C27.0553 27.1429 27.3823 27.0074 27.6234 26.7663C27.8645 26.5252 28 26.1981 28 25.8571C28 25.5161 27.8645 25.1891 27.6234 24.948C27.3823 24.7069 27.0553 24.5714 26.7143 24.5714H19Z" fill="#105AAA"/>
</svg>
